<?xml version="1.0" encoding="utf-8" ?>
<svg baseProfile="full" height="1024" version="1.1" width="1024" xmlns="http://www.w3.org/2000/svg" xmlns:ev="http://www.w3.org/2001/xml-events" xmlns:xlink="http://www.w3.org/1999/xlink"><defs /><polygon fill="white" points="414,327 413,328 399,328 398,329 392,329 391,330 390,330 389,331 384,331 383,332 381,332 380,333 377,333 376,334 374,334 373,335 371,335 370,336 368,336 367,337 366,337 365,338 362,338 361,339 358,339 357,340 354,340 353,341 351,341 350,342 347,342 346,343 345,343 344,344 342,344 341,345 340,345 339,346 338,346 337,347 336,347 335,348 333,348 332,349 331,349 330,350 329,350 329,351 328,352 326,352 325,353 324,353 323,354 321,354 320,355 319,355 317,357 315,357 314,358 312,358 311,359 308,359 306,361 301,361 300,362 297,362 295,364 294,364 293,365 291,365 290,366 289,366 288,367 287,367 284,370 282,370 281,371 279,371 278,372 277,372 276,373 274,373 272,375 271,375 270,376 269,376 268,377 266,377 264,379 263,379 261,381 260,381 258,383 257,383 256,384 255,384 252,387 251,387 248,390 247,390 247,391 246,392 244,392 240,396 239,396 236,399 235,399 234,400 234,401 232,403 231,403 231,404 230,405 229,405 225,409 225,410 224,411 223,411 211,423 211,424 208,427 208,428 204,432 204,433 202,435 202,436 201,437 201,438 200,439 200,440 198,442 198,443 196,445 196,446 192,450 192,451 191,452 191,453 190,454 190,455 187,458 187,460 186,461 186,462 185,463 185,464 184,465 184,467 183,468 183,469 182,470 182,471 180,473 180,475 179,476 179,478 178,479 178,481 177,482 177,488 176,489 176,509 177,510 177,513 178,514 178,515 179,516 179,518 180,519 180,521 181,522 181,524 182,525 182,527 183,528 183,529 184,530 184,531 185,532 185,534 186,535 186,536 188,538 188,539 189,540 189,541 190,542 190,543 193,546 193,547 196,550 196,551 199,554 199,555 202,558 202,559 203,560 204,560 205,561 205,562 210,567 210,568 222,580 223,580 224,581 224,582 225,583 226,583 229,586 230,586 231,587 231,588 232,589 233,589 234,590 234,591 235,591 237,593 238,593 243,598 244,598 247,601 248,601 250,603 251,603 254,606 255,606 257,608 258,608 259,609 261,609 265,613 266,613 267,614 269,614 270,615 271,615 272,616 273,616 275,618 278,618 279,619 282,619 283,620 284,620 285,621 286,621 287,622 289,622 290,623 293,623 294,624 298,624 299,625 302,625 303,626 307,626 308,627 314,627 315,628 317,628 318,629 322,629 323,630 325,630 326,631 330,631 331,632 334,632 335,633 336,633 338,635 339,635 340,636 342,636 343,637 345,637 346,638 347,638 349,640 350,640 351,641 353,641 355,643 356,643 357,644 358,644 361,647 362,647 363,648 364,648 365,649 366,649 369,652 370,652 371,653 371,654 372,654 373,655 373,656 377,660 377,661 378,662 379,662 383,666 383,668 387,672 387,673 389,675 389,676 390,677 390,678 391,679 391,680 392,681 392,682 393,683 393,684 397,688 397,689 399,691 399,692 400,693 400,694 403,697 403,698 407,702 407,703 410,706 410,707 412,709 413,709 416,712 416,713 417,714 417,715 418,715 420,717 421,717 426,722 427,722 428,723 430,723 431,724 431,725 432,725 433,726 434,726 435,727 436,727 437,728 439,728 441,730 442,730 443,731 444,731 445,732 446,732 448,734 449,734 450,735 452,735 453,736 454,736 455,737 456,737 457,738 458,738 459,739 461,739 462,740 464,740 465,741 467,741 468,742 469,742 470,743 472,743 473,744 475,744 476,745 478,745 479,746 483,746 484,747 491,747 492,746 496,746 497,745 500,745 501,744 506,744 507,743 509,743 510,742 512,742 513,741 518,741 519,740 522,740 523,739 526,739 527,738 533,738 534,737 535,738 546,738 547,737 552,737 553,736 557,736 558,735 559,735 560,734 563,734 564,733 565,733 566,732 569,732 570,731 571,731 572,730 573,730 574,729 575,729 576,728 578,728 579,727 581,727 585,723 586,723 587,722 588,722 590,720 591,720 593,718 594,718 596,716 597,716 599,714 599,713 604,708 605,708 606,707 606,706 609,703 610,703 612,701 612,700 614,698 614,697 618,693 618,690 621,687 621,686 623,684 623,683 624,682 624,680 625,679 625,678 626,677 626,676 627,675 627,674 628,673 628,671 629,670 630,670 630,669 631,668 631,667 632,666 632,665 635,662 635,660 636,659 637,659 637,658 639,656 639,655 643,651 643,650 644,649 645,649 648,646 649,646 651,644 652,644 652,643 653,642 655,642 656,641 657,641 658,640 662,640 663,639 665,639 666,638 667,638 668,637 671,637 672,636 675,636 676,635 683,635 684,634 686,634 687,635 688,635 689,636 691,636 692,635 695,635 696,634 701,634 702,633 704,633 705,632 712,632 713,631 716,631 717,630 720,630 721,629 725,629 726,628 728,628 729,627 734,627 735,626 739,626 740,625 745,625 746,624 755,624 756,623 759,623 760,622 762,622 763,621 765,621 766,620 767,620 768,619 769,619 770,618 772,618 774,616 776,616 777,615 778,615 782,611 784,611 786,609 787,609 788,608 789,608 791,606 792,606 795,603 796,603 801,598 802,598 804,596 805,596 808,593 809,593 813,589 814,589 822,581 823,581 827,577 827,576 837,566 837,565 842,560 842,559 843,558 843,557 847,553 847,552 849,550 849,549 851,547 851,546 853,544 853,543 855,541 855,540 856,539 856,538 858,536 858,535 859,534 859,532 860,531 860,530 861,529 861,528 862,527 862,525 864,523 864,521 865,520 865,518 866,517 866,515 867,514 867,512 868,511 868,509 869,508 869,500 870,499 870,491 869,490 869,485 868,484 868,478 867,477 867,476 866,475 866,472 865,471 865,470 864,469 864,467 863,466 863,465 862,464 862,463 861,462 861,460 860,459 860,458 859,457 859,456 858,455 858,454 857,453 857,452 854,449 854,448 851,445 851,444 850,443 850,442 848,440 848,439 844,435 844,434 839,429 839,428 838,428 836,426 836,425 832,421 832,420 831,420 829,418 829,417 828,417 809,398 808,398 807,397 806,397 802,393 802,392 801,392 798,389 797,389 795,387 794,387 792,385 792,384 791,384 788,381 787,381 785,379 784,379 783,378 783,377 782,377 781,376 780,376 778,374 777,374 776,373 775,373 773,371 772,371 769,368 768,368 767,367 766,367 765,366 763,366 761,364 760,364 759,363 758,363 756,361 754,361 752,359 751,359 750,358 749,358 748,357 747,357 746,356 744,356 743,355 742,355 740,353 739,353 738,352 737,352 736,351 734,351 733,350 732,350 731,349 729,349 727,347 726,347 725,346 723,346 722,345 719,345 718,344 715,344 714,343 711,343 710,342 707,342 706,341 700,341 699,340 696,340 695,341 676,341 675,342 672,342 671,343 663,343 662,344 654,344 653,345 643,345 642,346 630,346 629,347 615,347 614,346 603,346 602,345 599,345 598,344 596,344 595,343 585,343 584,342 581,342 580,341 579,341 578,340 575,340 574,339 571,339 570,338 564,338 563,337 562,337 561,336 560,336 559,335 558,335 557,334 554,334 553,333 543,333 542,332 539,332 538,331 528,331 527,332 521,332 520,331 519,332 511,332 510,333 494,333 493,334 471,334 470,333 465,333 464,332 458,332 457,331 452,331 451,330 444,330 443,329 427,329 426,328 424,328 423,327" /></svg>